<?xml version="1.0" encoding="UTF-8" standalone="no"?>
<!DOCTYPE svg PUBLIC "-//W3C//DTD SVG 1.1//EN" "http://www.w3.org/Graphics/SVG/1.1/DTD/svg11.dtd">
<svg width="100%" height="100%" viewBox="0 0 1899 944" version="1.1" xmlns="http://www.w3.org/2000/svg" xmlns:xlink="http://www.w3.org/1999/xlink" xml:space="preserve" xmlns:serif="http://www.serif.com/" style="fill-rule:evenodd;clip-rule:evenodd;stroke-linejoin:round;stroke-miterlimit:2;">
    <g transform="matrix(4.16667,0,0,4.16667,411.825,492.157)">
        <path d="M0,25.948C-1.36,28.749 -8.371,29.982 -11.365,30.51C-11.859,30.595 -12.255,30.666 -12.515,30.722L-21.745,32.719L-23.078,18.715C-19.719,19.315 -16.61,19.899 -13.587,20.497C-11.099,20.989 -8.207,21.567 -5.377,22.227C-4.985,22.32 -4.518,22.399 -4.019,22.486C-2.688,22.716 -1.036,23 -0.135,23.66C0.298,24.495 0.342,25.244 0,25.948M-6.772,94.16C-6.463,93.9 -6.105,93.63 -5.73,93.345C-4.32,92.276 -2.564,90.946 -2.241,89.182C-2.017,87.953 -2.271,86.365 -3.659,85.594C-3.911,85.453 -4.231,85.387 -4.668,85.387C-4.992,85.387 -5.345,85.426 -5.687,85.463C-5.989,85.494 -6.284,85.526 -6.541,85.526C-6.859,85.526 -7.05,85.475 -7.107,85.373C-7.171,85.261 -7.229,84.85 -6.398,83.489C-6.271,83.282 -5.272,82.84 -4.735,82.6C-4.253,82.386 -3.948,82.249 -3.793,82.14C-2.723,81.39 -1.79,80.456 -0.942,79.285C0.436,77.382 1.369,75.015 1.759,72.442C2.644,66.611 0.334,60.965 -1.776,56.697C-4.502,51.187 -7.583,45.725 -10.562,40.442C-11.824,38.208 -13.08,35.974 -14.315,33.735L-10.973,33.011C-10.011,32.803 -9.016,32.635 -7.965,32.455C-5.626,32.055 -3.208,31.642 -1.107,30.774C-0.96,30.715 -0.824,30.642 -0.684,30.575C7.187,49.475 9.724,65.956 7.063,80.941C5.066,92.178 1.938,99.57 -2.517,103.552C-3.916,104.973 -5.596,105.696 -7.525,105.699C-9.08,105.7 -10.133,105.346 -10.655,104.65C-11.15,103.989 -11.202,102.972 -10.799,101.536C-10.939,97.682 -9.65,96.593 -6.772,94.16M79.799,-13.863C79.562,-13.914 79.341,-13.947 79.13,-13.947C78.916,-13.947 78.691,-13.913 78.45,-13.86L64.452,-29.992C64.533,-30.099 64.611,-30.209 64.679,-30.326L90.534,-29.999C90.724,-29.177 91.22,-28.464 91.921,-27.991L79.799,-13.863ZM13.951,-14.944C13.951,-14.732 13.986,-14.508 14.039,-14.27L1.279,-8.398C2.729,-16.179 4.8,-23.936 7.437,-31.473L15.345,-17.642C14.47,-17.011 13.951,-16.025 13.951,-14.944M20.48,-15.932C20.331,-16.414 20.074,-16.851 19.722,-17.223L30.968,-29.106C31.474,-28.815 32.041,-28.655 32.63,-28.655C34.145,-28.655 35.453,-29.682 35.845,-31.125C41.463,-30.962 53.767,-30.605 58.877,-30.456C59.053,-30.125 59.288,-29.831 59.568,-29.573L47.828,-18.745C47.194,-19.572 46.246,-20.075 45.2,-20.075C43.566,-20.075 42.21,-18.896 41.932,-17.303C36.497,-16.956 25.625,-16.261 20.48,-15.932M48.532,-16.552C48.538,-16.611 48.548,-16.668 48.548,-16.727C48.548,-16.897 48.522,-17.064 48.497,-17.231L61.014,-28.774C61.296,-28.699 61.563,-28.655 61.818,-28.655C62.306,-28.655 62.778,-28.787 63.233,-29.006L76.986,-13.155C76.61,-12.838 76.311,-12.441 76.103,-11.984L48.532,-16.552ZM164.851,25.999C164.851,24.592 163.946,23.345 162.628,22.872L163.664,13.239C165.313,13.021 166.577,11.629 166.577,9.947C166.577,8.1 165.076,6.598 163.229,6.598C163.087,6.598 162.947,6.624 162.805,6.642L157.263,-7.857C158.179,-8.484 158.723,-9.489 158.723,-10.599C158.723,-10.789 158.696,-10.984 158.656,-11.186L164.746,-11.186C166.993,-6.355 169.532,-0.731 171.387,5.115C174.211,14.01 175.94,23.325 176.543,32.804L164.165,27.999C164.601,27.421 164.851,26.728 164.851,25.999M161.069,22.71C160.199,22.823 159.43,23.256 158.891,23.935L134.334,12.643L160.288,11.499C160.677,12.232 161.321,12.785 162.106,13.067L161.069,22.71ZM161.82,-17.464C161.862,-17.363 161.903,-17.262 161.95,-17.163C162.278,-16.457 163.317,-14.236 164.012,-12.753L157.944,-12.753L161.82,-17.464ZM97.499,12.761L85.532,5.77C85.533,5.76 85.534,5.749 85.535,5.738L97.077,0.526L98.671,11.976C98.227,12.151 97.829,12.418 97.499,12.761M82.319,9.002C83.467,8.959 84.51,8.319 85.083,7.324L96.706,14.113C96.608,14.43 96.545,14.751 96.545,15.067C96.545,15.66 96.708,16.229 97.002,16.736L79.063,34.549C78.733,33.844 78.18,33.285 77.473,32.955L82.319,9.002ZM96.125,-28.4L119.388,-14.344C119.334,-14.102 119.3,-13.877 119.3,-13.663C119.3,-12.889 119.577,-12.165 120.06,-11.571L98.341,-1.763L94.75,-27.557C95.269,-27.719 95.736,-28.004 96.125,-28.4M97.065,-31.235C103.474,-31.281 121.817,-31.414 127.841,-31.458C128.011,-30.775 128.387,-30.174 128.928,-29.719L122.617,-17.007C121.62,-16.997 120.697,-16.53 120.071,-15.761L96.94,-29.738C97.045,-30.068 97.112,-30.404 97.112,-30.742C97.112,-30.899 97.094,-31.064 97.065,-31.235M78.898,6.107C79.05,7.231 79.762,8.201 80.785,8.68L75.942,32.629C75.574,32.643 75.212,32.728 74.858,32.869L55.249,4.857C55.552,4.529 55.785,4.141 55.936,3.714L78.898,6.107ZM115.53,43.89C115.539,43.795 115.558,43.701 115.558,43.603C115.558,41.758 114.057,40.256 112.212,40.256C110.447,40.256 109.011,41.634 108.888,43.368L79.321,36.621C79.331,36.571 79.344,36.523 79.351,36.472L98.091,17.864C98.636,18.219 99.252,18.416 99.894,18.416C100.674,18.416 101.408,18.143 102.005,17.645L146.057,42.691C146.037,42.767 146.018,42.844 146.001,42.923L115.53,43.89ZM150.486,40.523C150.082,40.357 149.667,40.256 149.248,40.256C148.327,40.256 147.467,40.654 146.833,41.33L102.938,16.374C103.125,15.949 103.241,15.513 103.241,15.067C103.241,13.327 101.932,11.926 100.223,11.759L98.565,-0.147L121.54,-10.52C121.902,-10.391 122.274,-10.316 122.648,-10.316C124.495,-10.316 125.996,-11.818 125.996,-13.663C125.996,-14.928 125.288,-16.055 124.178,-16.627L130.332,-29.021C130.589,-28.958 130.832,-28.918 131.068,-28.918C132.392,-28.918 133.583,-29.722 134.111,-30.92L152.539,-12.344C152.21,-11.814 152.028,-11.219 152.028,-10.599C152.028,-8.754 153.529,-7.252 155.375,-7.252C155.52,-7.252 155.659,-7.277 155.799,-7.295L161.342,7.204C160.426,7.832 159.882,8.837 159.882,9.947L159.882,9.949C155.287,10.152 141.829,10.745 134.27,11.078C133.861,9.664 132.557,8.657 131.068,8.657C129.221,8.657 127.719,10.159 127.719,12.004C127.719,13.849 129.221,15.351 131.068,15.351C132.094,15.351 133.043,14.866 133.677,14.066L158.235,25.357C158.188,25.583 158.157,25.796 158.157,25.999C158.157,27.15 158.749,28.195 159.716,28.807L150.486,40.523ZM-49.327,-41.569C-49.327,-41.805 -49.369,-42.054 -49.433,-42.316L-39.669,-47.202C-39.12,-46.555 -38.359,-46.148 -37.515,-46.051L-33.087,-29.086C-33.375,-29.011 -33.645,-28.905 -33.896,-28.762L-49.612,-40.294C-49.436,-40.71 -49.327,-41.135 -49.327,-41.569M-17.87,-39.036L-31.753,-30.177L-35.947,-46.248C-35.29,-46.499 -34.738,-46.944 -34.352,-47.536L-19.785,-42.4C-19.798,-42.289 -19.819,-42.178 -19.819,-42.064C-19.819,-40.745 -19.041,-39.574 -17.87,-39.036M-13.635,-40.341L-9.434,-39.213C-10.537,-36.257 -11.551,-33.25 -12.479,-30.23C-12.917,-31.272 -13.863,-32.031 -15.015,-32.216L-15.47,-38.895C-14.704,-39.137 -14.057,-39.646 -13.635,-40.341M-29.134,-27.018C-29.442,-27.853 -30.064,-28.519 -30.865,-28.886L-16.964,-37.756L-16.578,-32.099C-17.947,-31.652 -18.888,-30.391 -18.888,-28.938C-18.888,-28.853 -18.872,-28.773 -18.863,-28.691L-29.134,-27.018ZM-87.079,-77.65C-86.555,-76.427 -85.362,-75.615 -84.025,-75.615C-83.998,-75.615 -83.967,-75.618 -83.936,-75.621L-83.326,-73.358L-91.342,-76.927L-87.079,-77.65ZM303.348,-22.286C303.251,-22.369 303.146,-22.45 303.031,-22.528L311.97,-41.162C312.416,-40.952 312.881,-40.841 313.361,-40.841C313.874,-40.841 314.379,-40.97 314.845,-41.204L318.861,-33.265C318.11,-32.627 317.668,-31.728 317.668,-30.741C317.668,-30.204 317.806,-29.679 318.056,-29.202L303.348,-22.286ZM282.67,-21.704L297.633,-17.727L276.426,-5.012C276.235,-5.205 276.024,-5.372 275.794,-5.513L280.298,-19.553C280.304,-19.57 280.292,-19.586 280.294,-19.603C281.376,-19.855 282.277,-20.638 282.67,-21.704M301.565,-23.095C301.421,-23.115 301.28,-23.139 301.131,-23.139C299.285,-23.139 297.783,-21.637 297.783,-19.791C297.783,-19.63 297.799,-19.466 297.829,-19.296L282.845,-23.28C282.833,-23.369 282.818,-23.456 282.799,-23.543L309.916,-40.502L301.565,-23.095ZM322.124,-33.881C321.764,-34.009 321.395,-34.089 321.016,-34.089C320.775,-34.089 320.521,-34.046 320.256,-33.979L316.068,-42.26C316.437,-42.773 316.648,-43.356 316.688,-43.979L331.069,-47.636L322.124,-33.881ZM231.667,-34.799C232.152,-34.191 232.817,-33.771 233.564,-33.608C233.553,-33.545 233.553,-33.479 233.587,-33.419L242.481,-17.733C241.68,-17.22 241.145,-16.407 240.996,-15.465C236.583,-15.036 227.356,-14.138 218.316,-13.259L205.819,-25.923C206.152,-26.456 206.335,-27.055 206.335,-27.677C206.335,-27.712 206.333,-27.749 206.33,-27.788L231.667,-34.799ZM246.039,-17.762C245.5,-18.103 244.893,-18.292 244.264,-18.292C244.171,-18.292 244.077,-18.282 243.977,-18.27L235.239,-33.681C235.745,-33.834 236.201,-34.106 236.586,-34.482L254.688,-26.699C254.652,-26.503 254.628,-26.316 254.628,-26.137C254.628,-25.666 254.753,-25.209 254.959,-24.765L246.039,-17.762ZM219.734,-11.823C226.92,-12.522 234.081,-13.219 238.697,-13.668L224.042,-7.457L219.734,-11.823ZM199.665,-27.449C199.785,-25.711 201.22,-24.329 202.989,-24.329C203.597,-24.329 204.183,-24.504 204.707,-24.821L216.308,-13.063C206.229,-12.082 196.862,-11.171 195.256,-11.014C193.908,-17.069 192.339,-23.113 190.601,-28.995L199.665,-27.449ZM243.482,-11.697L243.482,9.779C242.89,9.923 242.353,10.226 241.919,10.661L225.226,-6.257L241.469,-13.14C241.939,-12.411 242.66,-11.899 243.482,-11.697M217.34,-4.618C216.751,-5.073 216.043,-5.331 215.315,-5.331C213.468,-5.331 211.966,-3.829 211.966,-1.985C211.966,-1.212 212.241,-0.487 212.72,0.106L199.071,8.571C198.175,3.024 197.038,-2.888 195.594,-9.473C197.527,-9.661 207.407,-10.623 217.726,-11.627L222.49,-6.799L217.34,-4.618ZM200.045,15.198C199.828,13.548 199.592,11.897 199.338,10.25L214.085,1.104C214.213,1.156 214.345,1.194 214.477,1.228L213.789,24.435C213.447,24.613 213.141,24.855 212.874,25.147L200.045,15.198ZM356.581,-58.565L355.736,-59.097C355.69,-59.126 355.636,-59.141 355.583,-59.141C355.563,-59.141 355.542,-59.139 355.522,-59.135C355.448,-59.117 355.383,-59.073 355.343,-59.009L349.953,-50.436C349.631,-50.536 349.308,-50.599 348.986,-50.599C347.416,-50.599 346.082,-49.486 345.747,-47.97L337.549,-49.7C337.464,-50.055 337.315,-50.39 337.116,-50.704L347.02,-54.295C347.562,-53.584 348.408,-53.118 349.371,-53.118C351.007,-53.118 352.334,-54.445 352.334,-56.082C352.334,-57.719 351.007,-59.046 349.371,-59.046C347.734,-59.046 346.407,-57.719 346.407,-56.082C346.407,-55.969 346.427,-55.862 346.44,-55.752L335.816,-51.901C335.336,-52.146 334.834,-52.286 334.319,-52.286C332.564,-52.286 331.157,-50.961 331.004,-49.237L316.407,-45.524C315.875,-46.734 314.688,-47.535 313.361,-47.535C311.516,-47.535 310.015,-46.033 310.015,-44.189C310.015,-43.646 310.156,-43.116 310.412,-42.635L282.12,-24.965C281.485,-25.735 280.553,-26.203 279.553,-26.203C278.433,-26.203 277.42,-25.648 276.794,-24.718L261.92,-28.033L276.686,-37.529C277.309,-36.935 278.124,-36.586 278.977,-36.586C280.823,-36.586 282.325,-38.088 282.325,-39.933C282.325,-41.779 280.823,-43.281 278.977,-43.281C277.13,-43.281 275.629,-41.779 275.629,-39.933C275.629,-39.558 275.708,-39.194 275.832,-38.841L260.081,-28.713C259.48,-29.205 258.746,-29.485 257.974,-29.485C256.917,-29.485 255.954,-28.973 255.321,-28.132L237.432,-35.824C237.543,-36.163 237.616,-36.51 237.616,-36.869C237.616,-38.715 236.114,-40.217 234.269,-40.217C232.423,-40.217 230.922,-38.715 230.922,-36.869C230.922,-36.668 230.953,-36.459 231,-36.24L205.901,-29.295C205.313,-30.35 204.199,-31.025 202.988,-31.025C201.654,-31.025 200.461,-30.215 199.936,-28.992L190.091,-30.67C189.68,-32.028 189.265,-33.383 188.833,-34.732C188.867,-34.781 188.9,-34.832 188.898,-34.892C188.892,-35.033 188.735,-38.317 187.14,-42.117C188.447,-42.86 190.123,-43.247 192.149,-43.247C194.585,-43.247 197.387,-42.677 199.642,-41.72C203.068,-40.268 206.337,-38.115 209.501,-36.033C210.752,-35.21 211.997,-34.39 213.24,-33.62C213.452,-33.49 213.672,-33.423 213.898,-33.423C214.442,-33.423 214.935,-33.826 215.1,-34.404C215.262,-34.971 215.05,-35.517 214.547,-35.829C213.741,-36.329 212.836,-36.919 211.857,-37.557C206.274,-41.197 198.627,-46.18 191.835,-46.18C189.617,-46.18 187.636,-45.623 185.935,-44.535C184.286,-47.377 182.073,-49.57 179.343,-51.043C179.343,-51.043 179.342,-51.043 179.341,-51.044C177.378,-52.317 175.226,-52.963 172.939,-52.963C171.962,-52.963 170.942,-52.844 169.895,-52.61C170.937,-53.568 171.981,-54.523 173.043,-55.47C174.195,-56.496 175.345,-57.622 176.561,-58.814C181.275,-63.434 186.619,-68.67 193.252,-68.67L193.584,-68.666C201.976,-68.449 209.787,-60.081 214.956,-54.544C216.402,-52.994 217.827,-51.394 219.205,-49.846C222.193,-46.491 225.282,-43.022 228.734,-39.915C228.982,-39.692 229.276,-39.574 229.588,-39.574C230.138,-39.574 230.661,-39.939 230.861,-40.461C231.038,-40.921 230.913,-41.403 230.527,-41.75C227.215,-44.733 224.216,-48.098 221.317,-51.353C218.84,-54.133 216.279,-57.008 213.528,-59.639C208.49,-64.458 201.59,-71.058 193.599,-71.233L193.268,-71.237C186.342,-71.237 181.351,-66.586 176.525,-62.089L175.29,-60.944C174.152,-59.896 173.012,-58.858 171.874,-57.823C169.268,-55.449 166.574,-52.997 164.01,-50.504C161.431,-49.271 158.671,-47.561 155.8,-45.422C153.497,-43.971 151.177,-42.457 148.933,-40.993C146.65,-39.503 144.291,-37.962 141.959,-36.498C141.458,-36.183 141.248,-35.634 141.412,-35.064C141.577,-34.49 142.068,-34.089 142.606,-34.089C142.833,-34.089 143.055,-34.157 143.268,-34.29C143.268,-34.29 148.097,-37.342 149.736,-38.38C154.146,-41.175 158.707,-44.064 163.236,-46.826C166.316,-48.704 169.625,-50.442 172.947,-50.442C174.634,-50.442 176.179,-50.005 177.668,-49.108C181.653,-46.704 183.574,-42.119 185.058,-38.009C189.673,-25.252 193.227,-10.803 195.926,6.163C197.259,14.54 198.207,23.106 198.743,31.621C198.926,34.534 198.994,37.542 198.951,40.816L198.945,41.145C198.92,42.711 198.892,44.487 199.663,45.938C201.237,48.909 205.602,50.333 209.455,51.588C211.041,52.106 212.54,52.594 213.636,53.135C218.664,55.616 223.749,58.789 228.77,62.577C228.77,62.577 216.445,59.054 211.672,57.695C210.753,57.433 209.745,57.19 208.69,56.938C203.563,55.704 197.182,54.169 195.598,48.76C195.44,48.22 194.885,47.815 194.307,47.815C193.966,47.815 193.658,47.957 193.438,48.214C191.385,50.633 190.611,51.199 187.708,51.199L187.224,51.194C184.002,51.131 180.282,50.811 179.723,50.255C178.717,49.255 178.966,47.327 179.184,45.626C179.259,45.038 179.332,44.483 179.347,43.993C179.426,41.577 179.429,39.137 179.357,36.743C179.104,28.209 177.921,19.677 175.84,11.385C173.924,3.756 171.013,-4.107 166.941,-12.653C166.595,-13.379 166.246,-14.102 165.894,-14.827C164.074,-18.589 162.189,-22.479 161.014,-26.568C160.833,-27.202 160.658,-27.834 160.483,-28.465C159.68,-31.37 158.922,-34.113 157.563,-36.798C157.351,-37.218 156.978,-37.459 156.542,-37.459C156.189,-37.459 155.836,-37.304 155.573,-37.035C155.318,-36.777 155.182,-36.447 155.189,-36.105C155.193,-35.904 155.242,-35.711 155.332,-35.533C156.864,-32.504 157.868,-29.183 158.839,-25.971C159.526,-23.697 160.239,-21.349 161.136,-19.097L156.66,-13.658C156.243,-13.837 155.813,-13.947 155.375,-13.947C154.763,-13.947 154.174,-13.77 153.65,-13.451L134.333,-32.92C134.022,-34.485 132.668,-35.613 131.068,-35.613C129.5,-35.613 128.182,-34.535 127.831,-33.025C119.723,-32.966 101.774,-32.836 96.38,-32.797C95.747,-33.601 94.787,-34.089 93.766,-34.089C92.228,-34.089 90.915,-33.039 90.541,-31.566C84.224,-31.646 70.736,-31.816 65.156,-31.887C65.159,-31.926 65.167,-31.963 65.167,-32.002C65.167,-33.848 63.665,-35.35 61.818,-35.35C59.984,-35.35 58.494,-33.866 58.475,-32.036C52.642,-32.205 41.515,-32.529 35.878,-32.692C35.552,-34.22 34.205,-35.35 32.63,-35.35C30.785,-35.35 29.283,-33.848 29.283,-32.002C29.283,-31.358 29.48,-30.74 29.839,-30.193L18.389,-18.094C18.036,-18.216 17.672,-18.292 17.299,-18.292C17.139,-18.292 16.974,-18.262 16.809,-18.238L8.123,-33.431C8.519,-34.52 8.926,-35.607 9.349,-36.69C9.495,-37.067 9.464,-37.44 9.259,-37.74C9.031,-38.073 8.607,-38.28 8.153,-38.28C7.579,-38.28 7.096,-37.953 6.883,-37.402C-0.206,-19.191 -3.843,-0.02 -3.935,19.584C-5.295,19.296 -6.674,19.086 -8.013,18.889C-9.076,18.733 -10.081,18.588 -10.937,18.414L-12.524,18.103C-14.007,17.808 -15.49,17.515 -16.976,17.233C-16.959,17.172 -16.936,17.089 -16.936,16.985C-16.995,-2.75 -13.385,-22.104 -6.199,-40.571C-6.065,-40.942 -6.105,-41.307 -6.31,-41.599C-6.538,-41.925 -6.958,-42.128 -7.405,-42.128C-7.977,-42.128 -8.459,-41.801 -8.664,-41.275L-8.885,-40.688L-13.145,-41.832C-13.136,-41.909 -13.123,-41.985 -13.123,-42.064C-13.123,-43.909 -14.625,-45.411 -16.471,-45.411C-17.598,-45.411 -18.642,-44.826 -19.259,-43.877L-33.82,-49.01C-33.806,-49.122 -33.786,-49.232 -33.786,-49.347C-33.786,-51.193 -35.287,-52.695 -37.133,-52.695C-38.979,-52.695 -40.481,-51.193 -40.481,-49.347C-40.481,-49.111 -40.439,-48.861 -40.375,-48.6L-50.14,-43.713C-50.774,-44.461 -51.696,-44.916 -52.674,-44.916C-52.913,-44.916 -53.16,-44.875 -53.421,-44.811L-60.313,-58.571C-60.35,-58.643 -60.416,-58.696 -60.493,-58.717L-61.788,-59.068C-61.813,-59.075 -61.838,-59.078 -61.862,-59.078C-61.946,-59.078 -62.027,-59.04 -62.083,-58.973C-62.152,-58.887 -62.167,-58.767 -62.116,-58.667L-54.82,-44.101C-55.056,-43.9 -55.26,-43.665 -55.434,-43.402L-78.218,-62.536C-77.712,-62.941 -77.342,-63.476 -77.139,-64.094C-75.723,-63.981 -74.423,-63.878 -74.42,-63.878C-74.338,-63.878 -74.259,-63.913 -74.205,-63.976C-74.146,-64.046 -74.123,-64.137 -74.144,-64.225L-74.383,-65.247C-74.411,-65.367 -74.514,-65.456 -74.637,-65.466L-77.02,-65.656C-77.275,-67.279 -78.636,-68.48 -80.297,-68.48C-80.325,-68.48 -80.356,-68.477 -80.387,-68.475L-80.957,-70.59L-75.534,-68.176C-75.497,-68.159 -75.458,-68.151 -75.419,-68.151C-75.355,-68.151 -75.29,-68.173 -75.238,-68.216C-75.155,-68.285 -75.118,-68.394 -75.143,-68.499L-75.428,-69.72C-75.448,-69.806 -75.508,-69.878 -75.589,-69.914L-81.483,-72.538L-82.427,-76.039C-81.36,-76.624 -80.678,-77.742 -80.678,-78.963C-80.678,-80.808 -82.18,-82.311 -84.026,-82.311C-85.788,-82.311 -87.222,-80.936 -87.347,-79.194L-92.2,-78.371C-92.424,-80.014 -93.804,-81.264 -95.49,-81.264C-97.336,-81.264 -98.838,-79.762 -98.838,-77.917C-98.838,-76.072 -97.336,-74.57 -95.49,-74.57C-94.449,-74.57 -93.491,-75.068 -92.858,-75.887L-82.801,-71.41L-81.896,-68.055C-82.962,-67.471 -83.645,-66.352 -83.645,-65.132C-83.645,-63.286 -82.143,-61.784 -80.297,-61.784C-80.132,-61.784 -79.974,-61.808 -79.816,-61.832L-55.999,-41.829C-56.01,-41.743 -56.022,-41.658 -56.022,-41.569C-56.022,-39.723 -54.52,-38.221 -52.674,-38.221C-51.88,-38.221 -51.133,-38.512 -50.529,-39.023L-35.043,-27.659C-35.393,-27.118 -35.586,-26.51 -35.586,-25.874C-35.586,-24.029 -34.085,-22.527 -32.239,-22.527C-30.548,-22.527 -29.151,-23.801 -28.943,-25.462L-18.367,-27.184C-17.756,-26.199 -16.696,-25.591 -15.541,-25.591C-15.376,-25.591 -15.2,-25.623 -15.026,-25.652L-14.255,-24.068C-17.76,-10.768 -19.521,2.968 -19.499,16.765C-21.064,16.475 -22.629,16.186 -24.196,15.911C-24.276,15.897 -24.358,15.889 -24.442,15.889C-24.859,15.889 -25.261,16.057 -25.516,16.338C-25.727,16.571 -25.823,16.863 -25.793,17.181L-24.164,34.303C-24.094,35.04 -23.562,35.552 -22.872,35.552C-22.768,35.552 -22.662,35.542 -22.557,35.518L-16.92,34.299C-16.902,34.344 -16.888,34.389 -16.862,34.437C-15.566,36.797 -14.256,39.148 -12.944,41.503C-10.215,46.399 -7.393,51.464 -4.757,56.51C0.537,66.652 0.77,74.222 -4.065,79.012C-4.521,79.465 -5.46,79.978 -6.454,80.524C-8.497,81.644 -11.038,83.039 -11.549,84.99C-11.766,85.819 -11.599,86.684 -11.053,87.56C-10.533,88.395 -9.771,88.828 -8.57,88.927C-8.241,88.927 -7.795,88.777 -7.363,88.633C-7.134,88.554 -6.819,88.448 -6.781,88.432C-6.558,88.539 -6.412,88.703 -6.337,88.935C-6.151,89.507 -6.439,90.378 -6.665,90.791C-6.92,91.26 -7.652,91.759 -8.299,92.197C-8.644,92.431 -8.966,92.652 -9.2,92.852C-13.623,96.639 -15.26,100.344 -14.065,103.862C-13.158,106.533 -10.516,108.259 -7.333,108.259C-6.48,108.259 -5.64,108.135 -4.834,107.89C0.738,106.199 3.58,99.652 5.461,95.32C7.868,89.777 9.464,83.59 10.203,76.927C11.802,62.559 8.932,46.888 1.437,29.025C3.098,27.217 3.366,24.774 2.147,22.497C2.081,22.25 1.955,22.052 1.695,21.843C1.639,21.794 1.583,21.751 1.553,21.737C0.792,21.153 -0.173,20.674 -1.376,20.266C-1.371,11.307 -0.591,2.295 0.944,-6.527L14.693,-12.877C15.327,-12.08 16.274,-11.596 17.299,-11.596C18.933,-11.596 20.289,-12.775 20.567,-14.368L42.02,-15.739C42.452,-14.342 43.721,-13.38 45.2,-13.38C46.389,-13.38 47.465,-14.014 48.069,-15.041L75.798,-10.446C75.88,-8.673 77.336,-7.252 79.13,-7.252C80.976,-7.252 82.478,-8.754 82.478,-10.599C82.478,-11.596 82.015,-12.519 81.255,-13.153L93.229,-27.11L96.853,-1.092L85.177,4.179C84.615,3.042 83.479,2.316 82.195,2.316C80.781,2.316 79.533,3.226 79.063,4.55C73.187,3.937 61.902,2.761 56.091,2.156C55.869,0.511 54.477,-0.748 52.8,-0.748C50.954,-0.748 49.453,0.753 49.453,2.598C49.453,3.802 50.122,4.912 51.167,5.502L46.799,20.988C46.756,20.983 46.715,20.976 46.671,20.976C45.678,20.976 44.748,21.441 44.113,22.207L26.678,13.721C26.736,13.473 26.774,13.236 26.774,13.01C26.774,11.166 25.273,9.663 23.427,9.663C21.581,9.663 20.08,11.166 20.08,13.01C20.08,14.856 21.581,16.358 23.427,16.358C24.42,16.358 25.352,15.893 25.986,15.128L43.421,23.613C43.362,23.863 43.324,24.098 43.324,24.324C43.324,26.17 44.826,27.672 46.672,27.672C48.518,27.672 50.02,26.17 50.02,24.324C50.02,23.122 49.351,22.011 48.304,21.422L52.673,5.936C52.715,5.94 52.757,5.947 52.8,5.947C53.189,5.947 53.57,5.861 53.942,5.723L73.568,33.76C73.027,34.372 72.718,35.139 72.718,35.962C72.718,37.807 74.22,39.309 76.066,39.309C77.075,39.309 77.993,38.851 78.633,38.071L109.2,45.047C109.755,46.206 110.917,46.951 112.212,46.951C113.321,46.951 114.326,46.395 114.954,45.476C121.905,45.256 137.867,44.749 146.034,44.489C146.43,45.927 147.737,46.951 149.248,46.951C151.093,46.951 152.595,45.449 152.595,43.602C152.595,42.792 152.295,42.034 151.769,41.427L161.301,29.329C161.369,29.337 161.435,29.346 161.503,29.346C161.917,29.346 162.318,29.261 162.703,29.111L176.64,34.522C176.912,40.047 176.804,45.648 176.317,51.177C176.252,51.918 176.894,52.395 177.562,52.482C178.753,52.64 180.073,52.91 181.468,53.196C183.931,53.699 186.478,54.219 188.736,54.219C189.233,54.219 189.706,54.193 190.136,54.14C192.093,53.908 192.959,52.961 194.011,51.603C196.171,55.544 200.458,57.166 203.539,58.049C209.876,59.866 216.217,61.672 222.558,63.479L234.248,66.811C234.353,66.841 234.463,66.857 234.573,66.857C235.107,66.857 235.619,66.481 235.815,65.942C235.992,65.458 235.868,64.975 235.481,64.651C229.329,59.474 222.927,55.12 216.457,51.708C213.713,50.26 210.974,49.195 208.076,48.068L206.891,47.607C204.013,46.48 201.622,45.281 201.499,42.014C201.472,41.336 201.512,40.638 201.552,39.964C201.583,39.468 201.61,38.971 201.616,38.474C201.676,31.9 201.253,24.996 200.329,17.402L212.101,26.531C212.018,26.827 211.966,27.111 211.966,27.387C211.966,29.234 213.468,30.736 215.315,30.736C217.161,30.736 218.662,29.234 218.662,27.387C218.662,25.56 217.188,24.075 215.368,24.046L216.043,1.258C217.571,0.919 218.662,-0.401 218.662,-1.985C218.662,-2.45 218.535,-2.902 218.335,-3.337L223.673,-5.599L241.082,12.043C240.98,12.369 240.917,12.694 240.917,13.01C240.917,14.856 242.418,16.358 244.265,16.358C246.111,16.358 247.612,14.856 247.612,13.01C247.612,11.453 246.544,10.138 245.047,9.778L245.047,-11.698C246.515,-12.053 247.612,-13.369 247.612,-14.944C247.612,-15.547 247.44,-16.126 247.129,-16.645L255.915,-23.528C256.507,-23.058 257.226,-22.79 257.974,-22.79C259.821,-22.79 261.323,-24.292 261.323,-26.137C261.323,-26.278 261.311,-26.42 261.289,-26.568L276.244,-23.235C276.229,-23.109 276.206,-22.986 276.206,-22.856C276.206,-21.33 277.232,-20.035 278.682,-19.645L274.306,-6.006C274.225,-6.014 274.146,-6.029 274.063,-6.029C272.216,-6.029 270.715,-4.527 270.715,-2.682C270.715,-0.835 272.216,0.667 274.063,0.667C275.909,0.667 277.411,-0.835 277.411,-2.682C277.411,-3.013 277.344,-3.345 277.241,-3.673L299.384,-16.949C299.913,-16.623 300.51,-16.444 301.131,-16.444C302.977,-16.444 304.479,-17.946 304.479,-19.791C304.479,-20.192 304.383,-20.586 304.233,-20.971L319.152,-27.985C319.711,-27.603 320.35,-27.394 321.015,-27.394C322.862,-27.394 324.364,-28.896 324.364,-30.741C324.364,-31.601 324.026,-32.396 323.432,-33.021L332.148,-46.421C332.755,-45.892 333.507,-45.591 334.319,-45.591C335.857,-45.591 337.158,-46.634 337.537,-48.101L345.773,-46.363C346.171,-44.93 347.486,-43.905 348.986,-43.905C350.833,-43.905 352.334,-45.406 352.334,-47.252C352.334,-48.152 351.95,-48.999 351.297,-49.631L356.669,-58.175C356.752,-58.307 356.712,-58.482 356.581,-58.565" style="fill:rgb(35,31,32);fill-rule:nonzero;"/>
    </g>
    <g transform="matrix(4.16667,0,0,4.16667,227.338,288.25)">
        <path d="M0,-54.361C-1.086,-54.692 -2.027,-55.078 -2.851,-55.545C-3.041,-55.653 -3.258,-55.71 -3.479,-55.71C-3.833,-55.71 -4.177,-55.566 -4.424,-55.315C-4.657,-55.078 -4.784,-54.764 -4.777,-54.43C-4.745,-52.515 -4.873,-50.568 -4.996,-48.686C-5.119,-46.792 -5.247,-44.834 -5.213,-42.895C-5.205,-42.337 -4.852,-41.867 -4.292,-41.668C-2.104,-40.896 -0.389,-40.073 0.954,-39.153C2.158,-38.327 3.372,-37.336 4.094,-35.687C4.521,-34.709 4.607,-34.011 4.358,-33.554C3.995,-32.885 2.866,-32.702 1.67,-32.507C1.306,-32.448 0.932,-32.387 0.564,-32.311C0.214,-32.239 -0.125,-32.172 -0.454,-32.108C-3.583,-31.497 -5.845,-31.055 -7.233,-27.172C-7.767,-25.687 -7.754,-24.365 -7.198,-23.245C-6.562,-21.959 -5.253,-20.995 -3.31,-20.378C-2.117,-20 -0.869,-19.801 0.403,-19.771L0.725,-8.867C-1.183,-9.727 -3.157,-10.487 -5.15,-11.13C-8.833,-12.317 -12.877,-13.263 -18.263,-14.199C-21.747,-14.804 -24.413,-15.762 -26.106,-18.47C-26.788,-19.562 -27.331,-20.868 -27.719,-22.354C-28.776,-26.387 -28.476,-30.919 -28.04,-34.011C-26.783,-42.899 -22.256,-52.547 -15.619,-60.484L-15.283,-60.888C-13.524,-63.003 -11.115,-65.899 -8.539,-66.433C-8.119,-66.52 -7.705,-66.564 -7.305,-66.564C-5.757,-66.564 -4.375,-65.912 -3.196,-64.625C-0.844,-62.059 0.178,-57.519 0,-54.361M-25.728,-14.248C-23.234,-12.333 -20.147,-11.892 -17.161,-11.466C-16.628,-11.391 -16.096,-11.315 -15.571,-11.231C-12.356,-10.718 -9.09,-9.893 -5.864,-8.779C-3.323,-7.902 -0.867,-6.871 1.437,-5.714C1.626,-5.618 1.84,-5.568 2.056,-5.568C2.424,-5.568 2.776,-5.712 3.019,-5.963C3.246,-6.197 3.362,-6.5 3.352,-6.839L2.964,-19.949C5.445,-20.369 7.764,-21.462 9.683,-23.129C10.072,-23.469 10.203,-23.944 10.032,-24.402C9.836,-24.922 9.295,-25.299 8.744,-25.299C8.437,-25.299 8.143,-25.186 7.896,-24.971C6.667,-23.904 2.583,-22.29 -0.778,-22.29C-2.414,-22.29 -3.589,-22.674 -4.272,-23.432C-4.833,-24.052 -5.059,-24.94 -4.941,-26.071C-4.589,-29.51 -1.323,-29.526 1.558,-29.541C2.331,-29.544 3.063,-29.548 3.708,-29.617C5.229,-29.78 6.312,-30.3 6.923,-31.164C7.521,-32.006 7.651,-33.151 7.316,-34.568C6.479,-38.116 3.956,-40.77 -0.624,-42.919C-0.764,-42.984 -0.987,-43.064 -1.235,-43.15C-1.606,-43.279 -2.229,-43.496 -2.37,-43.646C-2.443,-43.726 -2.51,-43.793 -2.569,-43.854C-2.585,-43.964 -2.623,-44.102 -2.686,-44.279C-3.24,-45.857 -2.884,-48.443 -2.569,-50.724C-2.486,-51.331 -2.404,-51.925 -2.341,-52.486C1.373,-51.029 5.975,-50.816 10.049,-50.627C11.036,-50.582 11.989,-50.537 12.89,-50.477C17.034,-50.2 21.303,-50.019 25.921,-49.924L23.036,-44.608C22.755,-44.092 22.836,-43.471 23.239,-43.062L25.824,-40.431C24.396,-38.891 21.992,-38.005 19.162,-38.004C18.781,-38.004 18.407,-38.021 18.041,-38.052C18.033,-38.053 17.926,-38.057 17.917,-38.057C17.274,-38.057 16.804,-37.587 16.776,-36.914C16.748,-36.275 17.166,-35.558 17.993,-35.487C18.4,-35.453 18.812,-35.435 19.226,-35.435C22.588,-35.435 25.599,-36.581 27.607,-38.616L34.427,-31.675C34.549,-31.55 34.718,-31.407 34.897,-31.253C35.014,-31.155 35.134,-31.053 35.25,-30.949C35.116,-30.758 35.005,-30.475 34.875,-30.143C34.738,-29.794 34.583,-29.399 34.39,-29.079C31.729,-24.695 27.871,-21.977 23.232,-21.217C22.609,-21.115 22.227,-20.628 22.276,-20.005C22.329,-19.369 22.848,-18.71 23.625,-18.71C23.7,-18.71 23.776,-18.716 23.856,-18.729C24.847,-18.891 25.852,-19.164 26.847,-19.522L42.114,3.316C42.368,3.696 42.829,3.952 43.262,3.952C43.494,3.952 43.711,3.88 43.889,3.743C49.596,-0.619 57.769,-2.252 63.621,-2.855C65.669,-3.065 67.769,-3.172 69.865,-3.172C85.616,-3.172 102.434,2.646 121.282,14.614C121.496,14.75 121.719,14.819 121.947,14.819C122.482,14.819 122.972,14.42 123.138,13.848C123.303,13.278 123.095,12.727 122.595,12.41C103.364,0.197 86.138,-5.74 69.934,-5.74C67.797,-5.74 65.653,-5.632 63.563,-5.419C55.091,-4.555 48.358,-2.448 43.546,0.847L29.22,-20.582C33.177,-22.707 36.313,-26.276 38.063,-30.686C38.238,-31.131 38.035,-31.665 37.743,-31.962L30.051,-39.792C29.694,-40.154 29.205,-40.57 28.686,-41.01C27.531,-41.99 26.223,-43.1 25.819,-44.068L25.812,-44.088C25.949,-44.27 26.021,-44.563 26.07,-44.852C26.274,-46.016 27.244,-47.496 28.1,-48.802C28.502,-49.419 28.885,-50.002 29.163,-50.515C29.385,-50.925 29.377,-51.408 29.144,-51.807C28.915,-52.196 28.507,-52.432 28.054,-52.438C23.913,-52.493 19.542,-52.652 15.063,-52.911C13.982,-52.973 12.818,-53.006 11.606,-53.041C8.722,-53.124 5.467,-53.226 2.525,-53.76C2.961,-57.822 1.255,-63.171 -1.497,-66.281C-3.174,-68.178 -5.155,-69.18 -7.223,-69.18C-8.506,-69.18 -9.828,-68.8 -11.154,-68.05C-20.611,-62.704 -26.361,-48.793 -28.394,-43.06C-29.335,-40.407 -32.281,-31.117 -30.686,-22.973C-29.933,-19.131 -28.265,-16.195 -25.728,-14.248" style="fill:rgb(35,31,32);fill-rule:nonzero;"/>
    </g>
</svg>
